<svg viewBox="0 0 64 64" xmlns="http://www.w3.org/2000/svg">
  <defs>
    <!-- 배경 그라데이션 (따뜻한 하늘색에서 오렌지로) -->
    <linearGradient id="skyGradient" x1="0%" y1="0%" x2="0%" y2="100%">
      <stop offset="0%" style="stop-color:#87CEEB;stop-opacity:1" />
      <stop offset="70%" style="stop-color:#FFB366;stop-opacity:1" />
      <stop offset="100%" style="stop-color:#FF8C42;stop-opacity:1" />
    </linearGradient>
    
    <!-- 건물 그라데이션 (따뜻한 회색에서 골드로) -->
    <linearGradient id="buildingGradient" x1="0%" y1="0%" x2="0%" y2="100%">
      <stop offset="0%" style="stop-color:#FFD700;stop-opacity:1" />
      <stop offset="100%" style="stop-color:#FF8C00;stop-opacity:1" />
    </linearGradient>
    
    <!-- 건물 그림자 -->
    <linearGradient id="shadowGradient" x1="0%" y1="0%" x2="0%" y2="100%">
      <stop offset="0%" style="stop-color:#CC6600;stop-opacity:1" />
      <stop offset="100%" style="stop-color:#B8860B;stop-opacity:1" />
    </linearGradient>
  </defs>
  
  <!-- 배경 원 -->
  <circle cx="32" cy="32" r="32" fill="url(#skyGradient)"/>
  
  <!-- 논현동 아파트 단지 실루엣 -->
  
  <!-- 메인 고층빌딩 (에코메트로 느낌) -->
  <rect x="20" y="8" width="8" height="48" fill="url(#buildingGradient)" rx="1"/>
  <rect x="21" y="8" width="6" height="48" fill="url(#shadowGradient)" rx="1"/>
  
  <!-- 두 번째 빌딩 -->
  <rect x="30" y="15" width="6" height="41" fill="url(#buildingGradient)" rx="1"/>
  <rect x="31" y="15" width="4" height="41" fill="url(#shadowGradient)" rx="1"/>
  
  <!-- 세 번째 빌딩 -->
  <rect x="38" y="12" width="7" height="44" fill="url(#buildingGradient)" rx="1"/>
  <rect x="39" y="12" width="5" height="44" fill="url(#shadowGradient)" rx="1"/>
  
  <!-- 네 번째 빌딩 (낮은 상업건물) -->
  <rect x="47" y="25" width="5" height="31" fill="url(#buildingGradient)" rx="1"/>
  <rect x="48" y="25" width="3" height="31" fill="url(#shadowGradient)" rx="1"/>
  
  <!-- 다섯 번째 빌딩 -->
  <rect x="14" y="20" width="4" height="36" fill="url(#buildingGradient)" rx="1"/>
  <rect x="15" y="20" width="2" height="36" fill="url(#shadowGradient)" rx="1"/>
  
  <!-- 여섯 번째 빌딩 -->
  <rect x="53" y="18" width="4" height="38" fill="url(#buildingGradient)" rx="1"/>
  <rect x="54" y="18" width="2" height="38" fill="url(#shadowGradient)" rx="1"/>
  
  <!-- 일곱 번째 빌딩 (앞쪽 낮은 건물) -->
  <rect x="10" y="35" width="6" height="21" fill="url(#buildingGradient)" rx="1"/>
  <rect x="11" y="35" width="4" height="21" fill="url(#shadowGradient)" rx="1"/>
  
  <!-- 건물 창문들 (디테일) -->
  <!-- 메인 빌딩 창문 -->
  <rect x="22" y="12" width="1" height="1" fill="#FFFACD" opacity="0.8"/>
  <rect x="24" y="12" width="1" height="1" fill="#FFFACD" opacity="0.8"/>
  <rect x="22" y="16" width="1" height="1" fill="#FFFACD" opacity="0.8"/>
  <rect x="24" y="16" width="1" height="1" fill="#FFFACD" opacity="0.8"/>
  <rect x="22" y="20" width="1" height="1" fill="#FFFACD" opacity="0.8"/>
  <rect x="24" y="20" width="1" height="1" fill="#FFFACD" opacity="0.8"/>
  
  <!-- 두 번째 빌딩 창문 -->
  <rect x="32" y="18" width="1" height="1" fill="#FFFACD" opacity="0.8"/>
  <rect x="32" y="22" width="1" height="1" fill="#FFFACD" opacity="0.8"/>
  <rect x="32" y="26" width="1" height="1" fill="#FFFACD" opacity="0.8"/>
  
  <!-- 세 번째 빌딩 창문 -->
  <rect x="40" y="16" width="1" height="1" fill="#FFFACD" opacity="0.8"/>
  <rect x="42" y="16" width="1" height="1" fill="#FFFACD" opacity="0.8"/>
  <rect x="40" y="20" width="1" height="1" fill="#FFFACD" opacity="0.8"/>
  <rect x="42" y="20" width="1" height="1" fill="#FFFACD" opacity="0.8"/>
  
  <!-- 상단에 작은 포인트 (논현역 느낌) -->
  <circle cx="32" cy="10" r="2" fill="#FFD700" opacity="0.9"/>
  <circle cx="32" cy="10" r="1" fill="#FFA500"/>
</svg> 